<?xml version="1.0" encoding="utf-8"?>
<!-- Generator: Adobe Illustrator 25.4.1, SVG Export Plug-In . SVG Version: 6.00 Build 0)  -->
<svg version="1.1" xmlns="http://www.w3.org/2000/svg" xmlns:xlink="http://www.w3.org/1999/xlink" x="0px" y="0px"
	 viewBox="0 0 1920 1920" style="enable-background:new 0 0 1920 1920;" xml:space="preserve">
<style type="text/css">
	.st0{clip-path:url(#SVGID_00000107567504401921264470000015561565258211590052_);}
	.st1{fill:#CC4444;}
	.st2{fill:#56CC56;}
	.st3{fill:#4646BC;}
	.st4{fill:#FFFFFF;}
</style>
<g id="Layer_1">
</g>
<g id="Layer_3">
	<g>
		<defs>
			<polyline id="SVGID_1_" points="766.41,0 1920,0 1920,1920 0,1920 0,0 766.41,0 			"/>
		</defs>
		<clipPath id="SVGID_00000074407866542139479800000001338759588226823600_">
			<use xlink:href="#SVGID_1_"  style="overflow:visible;"/>
		</clipPath>
		<g style="clip-path:url(#SVGID_00000074407866542139479800000001338759588226823600_);">
			<g>
				<polyline class="st1" points="146.92,1920 485.47,0 579.15,0.02 240.61,1920 				"/>
			</g>
			<g>
				<polyline class="st2" points="240.47,1920 579.02,0 672.7,0 334.16,1920 				"/>
			</g>
			<g>
				<polyline class="st3" points="766.41,0 427.86,1920 334.17,1920 672.72,0 				"/>
			</g>
			<g>
				<g>
					<path class="st4" d="M1279.12,625.16c0.59-3.36,2.23-6.02,4.91-7.96c2.68-1.95,5.7-2.62,9.07-2.03l30.02,5.29
						c3.36,0.59,6.03,2.27,8,5.04c1.97,2.77,2.64,5.75,1.99,8.94l-2.05,11.61c-0.17,0.94-0.61,1.65-1.34,2.12
						c-0.73,0.48-1.48,0.65-2.27,0.51l-13.37-2.36c-0.86-0.15-1.53-0.57-2.02-1.26c-0.48-0.69-0.65-1.46-0.5-2.33l0.99-5.63
						c0.36-2.03-0.08-3.9-1.31-5.61c-1.23-1.71-2.86-2.74-4.89-3.1c-2.11-0.37-4,0.04-5.66,1.24c-1.66,1.2-2.63,2.82-2.91,4.87
						l-6.04,34.25c-0.36,2.03,0.02,3.89,1.13,5.58c1.11,1.69,2.73,2.72,4.84,3.09s4.01-0.02,5.71-1.17c1.69-1.15,2.73-2.78,3.1-4.89
						l1.14-6.45c0.14-0.78,0.53-1.42,1.18-1.91c0.65-0.49,1.41-0.66,2.27-0.51l13.49,2.38c0.78,0.14,1.42,0.53,1.91,1.18
						c0.49,0.65,0.7,1.38,0.65,2.17l-2.11,11.96c-0.61,3.44-2.3,6.08-5.09,7.93c-2.79,1.85-5.78,2.49-8.99,1.92l-30.02-5.29
						c-3.36-0.59-5.99-2.25-7.89-4.96c-1.9-2.71-2.56-5.71-1.98-9L1279.12,625.16z"/>
					<path class="st4" d="M1355.75,669.27c-0.3,1.72,0.12,3.43,1.27,5.12c1.15,1.7,2.78,2.73,4.89,3.1c2.11,0.37,4-0.04,5.66-1.24
						c1.66-1.2,2.64-2.62,2.93-4.26l6.84-38.82c0.17-0.94,0.59-1.63,1.27-2.07c0.68-0.44,1.49-0.58,2.43-0.42l13.49,2.38
						c0.78,0.14,1.42,0.51,1.92,1.12c0.5,0.61,0.63,1.34,0.4,2.19l-11.44,64.86c-0.64,3.19-2.37,5.77-5.17,7.73
						c-2.81,1.96-5.81,2.66-9.02,2.1l-38.94-6.87c-0.86-0.15-1.52-0.55-1.97-1.19c-0.45-0.64-0.61-1.36-0.47-2.14l0.77-4.34
						c0.15-0.86,0.55-1.52,1.19-1.97c0.64-0.45,1.39-0.6,2.26-0.45l26.15,4.61c1.48,0.26,2.81-0.05,3.97-0.93
						c1.16-0.88,1.91-2.02,2.23-3.41c0.25-1.41-0.08-2.65-0.97-3.74c-0.9-1.08-2.06-1.71-3.48-1.88l-17.36-3.06
						c-3.28-0.58-5.85-2.26-7.7-5.05c-1.85-2.78-2.48-5.82-1.9-9.1l7.86-44.57c0.14-0.78,0.53-1.42,1.18-1.91
						c0.65-0.49,1.48-0.65,2.5-0.47l13.84,2.44c0.78,0.14,1.4,0.53,1.85,1.17c0.45,0.65,0.57,1.35,0.35,2.12L1355.75,669.27z"/>
					<path class="st4" d="M1429.22,616.07l-3.64,20.64c-0.08,0.47,0,0.91,0.25,1.31c0.25,0.41,0.57,0.64,0.96,0.71l20.76,3.66
						c3.28,0.58,5.87,2.29,7.75,5.11c1.88,2.83,2.57,5.89,2.07,9.19l-8.04,45.62c-0.55,3.13-2.2,5.62-4.95,7.47
						c-2.74,1.85-5.7,2.58-8.85,2.19l-39.29-6.93c-0.8-0.06-1.44-0.41-1.93-1.07c-0.49-0.65-0.66-1.4-0.51-2.27l15.7-89.02
						c0.15-0.86,0.59-1.51,1.31-1.95c0.72-0.44,1.43-0.59,2.14-0.47l13.84,2.44c0.86,0.15,1.51,0.55,1.97,1.19
						C1429.2,614.58,1429.36,615.29,1429.22,616.07z M1436.91,658.91c0.36-2.03-0.04-3.9-1.19-5.59c-1.15-1.69-2.78-2.73-4.89-3.1
						c-2.11-0.37-4,0.04-5.66,1.24c-1.66,1.2-2.67,2.81-3.03,4.85l-6.14,34.83c-0.32,1.8,0.1,3.53,1.26,5.18
						c1.16,1.66,2.79,2.67,4.91,3.04c2.11,0.37,3.97-0.03,5.59-1.19c1.62-1.17,2.63-2.68,3.04-4.54L1436.91,658.91z"/>
					<path class="st4" d="M1509.91,722.21c-0.14,0.78-0.53,1.4-1.17,1.85c-0.64,0.45-1.4,0.6-2.25,0.45l-39.05-6.89
						c-3.21-0.57-5.79-2.23-7.77-5c-1.97-2.77-2.67-5.75-2.11-8.96l8.07-45.74c0.59-3.36,2.28-5.99,5.08-7.87
						c2.79-1.89,5.75-2.55,8.88-2l30.26,5.34c3.28,0.58,5.87,2.23,7.77,4.94c1.9,2.71,2.55,5.75,1.96,9.11l-4.43,25.1
						c-0.58,3.28-2.21,5.92-4.9,7.9c-2.69,1.99-5.67,2.69-8.96,2.11l-17.36-3.06c-1.41-0.25-2.73,0.04-3.96,0.87
						c-1.23,0.83-1.98,1.95-2.22,3.36c-0.25,1.41,0.02,2.73,0.81,3.95c0.79,1.23,1.93,1.97,3.42,2.23l26.27,4.63
						c0.86,0.15,1.51,0.55,1.97,1.19c0.45,0.64,0.6,1.4,0.45,2.26L1509.91,722.21z M1499.04,669.98c0.37-2.11-0.02-3.99-1.18-5.65
						c-1.16-1.66-2.79-2.67-4.9-3.04c-2.11-0.37-4,0.02-5.65,1.18c-1.66,1.16-2.67,2.79-3.04,4.91l-2.46,13.96
						c-0.29,1.64,0.14,3.31,1.29,5.01c1.15,1.7,2.78,2.73,4.9,3.1c2.11,0.37,4-0.04,5.66-1.24c1.66-1.2,2.65-2.66,2.95-4.38
						L1499.04,669.98z"/>
					<path class="st4" d="M1527.76,669c0.59-3.36,2.23-6.03,4.92-8.02c2.69-1.98,5.71-2.64,9.05-1.97l30.02,5.29
						c3.37,0.52,6.04,2.17,8.01,4.98c1.96,2.81,2.62,5.8,1.98,9l-2.05,11.61c-0.17,0.94-0.61,1.64-1.34,2.12
						c-0.73,0.48-1.48,0.65-2.27,0.51l-13.37-2.36c-0.86-0.15-1.53-0.57-2.02-1.26c-0.48-0.69-0.65-1.46-0.5-2.32l0.99-5.63
						c0.36-2.03-0.08-3.9-1.31-5.61c-1.23-1.71-2.9-2.75-5.01-3.12c-2.11-0.37-3.98,0.04-5.6,1.25c-1.62,1.21-2.58,2.83-2.85,4.88
						l-8.54,48.44c-0.19,1.1-0.63,1.84-1.3,2.25c-0.68,0.41-1.52,0.52-2.54,0.34l-13.6-2.4c-0.72-0.05-1.34-0.4-1.87-1.06
						c-0.53-0.66-0.68-1.41-0.45-2.26L1527.76,669z"/>
					<path class="st4" d="M1615.7,648.95l-3.64,20.64c-0.08,0.47,0,0.91,0.25,1.31c0.25,0.41,0.57,0.64,0.96,0.71l20.76,3.66
						c3.28,0.58,5.87,2.29,7.74,5.11c1.88,2.83,2.57,5.89,2.07,9.19l-8.04,45.62c-0.55,3.13-2.2,5.62-4.95,7.47
						c-2.74,1.85-5.7,2.58-8.85,2.19l-39.29-6.93c-0.8-0.06-1.44-0.41-1.93-1.07c-0.49-0.65-0.66-1.4-0.51-2.27l15.7-89.02
						c0.15-0.86,0.59-1.51,1.31-1.95c0.72-0.44,1.44-0.59,2.14-0.47l13.84,2.44c0.86,0.15,1.51,0.55,1.97,1.19
						C1615.68,647.46,1615.84,648.17,1615.7,648.95z M1623.38,691.79c0.36-2.03-0.04-3.9-1.19-5.59c-1.15-1.69-2.78-2.73-4.89-3.1
						c-2.11-0.37-4,0.04-5.66,1.24c-1.66,1.2-2.67,2.81-3.03,4.85l-6.14,34.83c-0.32,1.8,0.1,3.53,1.26,5.18
						c1.16,1.66,2.79,2.67,4.91,3.04c2.11,0.37,3.97-0.03,5.59-1.19c1.62-1.17,2.63-2.68,3.04-4.54L1623.38,691.79z"/>
					<path class="st4" d="M1696.19,686.24c3.3,0.5,5.91,2.13,7.84,4.89s2.61,5.78,2.03,9.06l-8.09,45.86
						c-0.59,3.36-2.24,5.97-4.95,7.83c-2.71,1.86-5.74,2.49-9.1,1.9l-30.26-5.34c-3.1-0.71-5.62-2.4-7.57-5.08
						c-1.95-2.68-2.64-5.58-2.09-8.71l8.07-45.74c0.66-3.27,2.35-5.89,5.08-7.87c2.72-1.98,5.73-2.68,9.02-2.1L1696.19,686.24z
						 M1670.79,700.02l-6.14,34.83c-0.25,1.89,0.18,3.66,1.3,5.31c1.12,1.65,2.74,2.66,4.85,3.03c2.11,0.37,3.99-0.02,5.65-1.18
						c1.66-1.16,2.64-2.64,2.96-4.44l6.16-34.95c0.36-2.03-0.04-3.9-1.19-5.59c-1.15-1.69-2.78-2.73-4.89-3.1
						c-2.11-0.37-4,0.04-5.66,1.24C1672.16,696.38,1671.15,697.99,1670.79,700.02z"/>
					<path class="st4" d="M1728.71,735.03c-0.3,1.72,0.12,3.43,1.27,5.12c1.15,1.7,2.78,2.73,4.9,3.1c2.11,0.37,4-0.04,5.66-1.24
						c1.66-1.2,2.64-2.62,2.93-4.26l6.84-38.82c0.17-0.94,0.59-1.63,1.27-2.07c0.68-0.44,1.49-0.58,2.43-0.42l13.49,2.38
						c0.78,0.14,1.42,0.51,1.92,1.12c0.5,0.61,0.63,1.34,0.4,2.19l-11.44,64.86c-0.64,3.19-2.37,5.77-5.17,7.73
						c-2.81,1.96-5.81,2.66-9.02,2.1l-38.94-6.87c-0.86-0.15-1.52-0.55-1.97-1.19c-0.45-0.64-0.61-1.36-0.47-2.14l0.77-4.34
						c0.15-0.86,0.55-1.52,1.19-1.97c0.64-0.45,1.39-0.6,2.25-0.45l26.15,4.61c1.48,0.26,2.81-0.05,3.97-0.93
						c1.16-0.88,1.91-2.02,2.23-3.41c0.25-1.41-0.08-2.65-0.97-3.74c-0.9-1.08-2.06-1.71-3.48-1.88l-17.36-3.06
						c-3.28-0.58-5.85-2.26-7.7-5.05c-1.85-2.78-2.48-5.82-1.9-9.1l7.86-44.57c0.14-0.78,0.53-1.42,1.18-1.91
						c0.65-0.49,1.48-0.65,2.5-0.47l13.84,2.44c0.78,0.14,1.4,0.53,1.85,1.17c0.45,0.64,0.57,1.35,0.35,2.12L1728.71,735.03z"/>
				</g>
				<g>
					<path class="st4" d="M670.13,778.37c2.63-14.93,9.7-26.84,21.21-35.73c11.5-8.89,24.31-12.09,38.43-9.6l90.81,16.01
						c14.11,2.49,25.26,9.91,33.44,22.27c8.17,12.36,10.86,25.71,8.05,40.05l-6.61,37.47c-1.29,7.33-4.74,12.96-10.32,16.86
						c-5.59,3.92-11.37,5.34-17.34,4.29l-40.72-7.18c-6.52-1.15-11.66-4.5-15.44-10.07c-3.78-5.56-5.05-11.87-3.8-18.94l3.16-17.92
						c0.43-2.44-0.01-4.69-1.33-6.74c-1.32-2.05-3.06-3.27-5.24-3.65c-2.44-0.43-4.56,0.04-6.34,1.4c-1.78,1.36-2.89,3.27-3.32,5.71
						l-19.53,110.77c-0.43,2.44-0.04,4.61,1.16,6.5c1.2,1.89,3.03,3.05,5.47,3.48c2.44,0.43,4.55-0.04,6.34-1.4
						c1.78-1.37,2.88-3.27,3.32-5.71l3.66-20.77c1.15-6.52,4.41-11.89,9.77-16.12c5.36-4.23,11.3-5.77,17.82-4.63l41.13,7.25
						c5.97,1.05,10.8,4.21,14.49,9.48c3.69,5.27,5.2,11.35,4.55,18.23l-6.89,39.09c-2.73,15.48-9.99,27.28-21.78,35.42
						c-11.79,8.14-24.48,11.01-38.05,8.62l-90.81-16.01c-14.39-2.54-25.52-9.68-33.38-21.42c-7.87-11.74-10.48-25.08-7.85-40.01
						L670.13,778.37z M684.38,780.89L658.46,927.9c-1.87,10.59,0,20.23,5.61,28.91c5.61,8.69,13.56,13.94,23.88,15.76l90.81,16.01
						c9.77,1.72,18.9-0.45,27.39-6.51c8.48-6.06,13.71-14.65,15.67-25.79l6.75-38.28c0.2-2.76-0.42-5.18-1.87-7.26
						c-1.46-2.07-3.27-3.31-5.44-3.69l-41.13-7.25c-2.44-0.43-4.72,0.15-6.81,1.74c-2.11,1.59-3.39,3.75-3.87,6.46l-3.66,20.77
						c-1.2,6.79-4.37,12.04-9.5,15.75c-5.13,3.71-10.82,5.02-17.07,3.92c-6.52-1.15-11.47-4.4-14.86-9.76
						c-3.4-5.36-4.52-11.29-3.37-17.81l19.46-110.36c1.15-6.52,4.24-11.78,9.29-15.79c5.04-4.01,10.83-5.44,17.34-4.29
						c5.97,1.05,10.78,4.35,14.42,9.89c3.64,5.54,4.89,11.57,3.74,18.08l-3.16,17.92c-0.48,2.72-0.01,5.18,1.43,7.39
						c1.43,2.21,3.5,3.56,6.22,4.04l40.72,7.18c2.17,0.38,4.37-0.21,6.61-1.77c2.23-1.56,3.62-3.84,4.14-6.83l6.61-37.46
						c2.08-10.27,0.19-19.77-5.68-28.5c-5.88-8.73-13.98-14.01-24.29-15.83l-90.81-16.01c-10.32-1.82-19.53,0.41-27.63,6.67
						C691.3,761.47,686.3,770.03,684.38,780.89z"/>
					<path class="st4" d="M956.64,927.57c-0.29,1.63,0.24,3.4,1.58,5.32c1.34,1.92,3.09,3.06,5.27,3.45
						c2.44,0.43,4.55-0.04,6.34-1.4c1.78-1.37,2.79-2.72,3.03-4.08l22.04-125.02c1.29-7.33,4.66-12.96,10.12-16.9
						c5.45-3.93,11.57-5.31,18.36-4.11l40.72,7.18c5.97,1.05,11,4.32,15.07,9.8c4.07,5.48,5.03,11.95,2.88,19.4l-36.69,208.09
						c-2.49,14.12-9.69,25.58-21.6,34.4c-11.91,8.82-24.66,12.03-38.23,9.63l-117.69-20.75c-6.52-1.15-11.54-4.42-15.07-9.79
						c-3.53-5.39-4.7-11.47-3.5-18.25l2.44-13.85c1.2-6.78,4.37-12.1,9.53-15.95c5.15-3.85,10.99-5.2,17.51-4.05l79,13.93
						c0.54,0.1,1.06-0.09,1.57-0.56c0.5-0.47,0.8-0.97,0.9-1.52c-0.05,0.27-0.14,0.4-0.28,0.37c-0.14-0.03-0.61-0.11-1.43-0.25
						l-52.94-9.33c-13.85-2.44-24.58-9.86-32.18-22.26c-7.62-12.4-10.15-25.79-7.61-40.18l25.35-143.75
						c1.15-6.52,4.33-11.9,9.57-16.16c5.22-4.25,11.37-5.76,18.43-4.52l41.94,7.4c6.24,1.1,11.23,4.57,14.96,10.41
						c3.73,5.84,4.59,12.08,2.58,18.72L956.64,927.57z M942.8,925.13l22.12-125.43c0.43-2.44-0.01-4.69-1.33-6.74
						c-1.32-2.05-3.06-3.27-5.23-3.65l-41.94-7.4c-2.99-0.53-5.53,0.01-7.63,1.59c-2.1,1.59-3.37,3.61-3.8,6.05L879.63,933.3
						c-1.87,10.59-0.01,20.3,5.57,29.12c5.58,8.82,13.26,14.1,23.03,15.82l52.53,9.26c4.39,0.5,7.88,2.51,10.48,6.05
						c2.59,3.54,3.51,7.48,2.74,11.82c-1.09,4.57-3.35,8.3-6.8,11.19c-3.45,2.9-7.48,3.93-12.1,3.12l-79-13.93
						c-2.44-0.43-4.71,0.08-6.78,1.54c-2.08,1.46-3.35,3.54-3.83,6.25l-2.44,13.85c-0.43,2.44,0.08,4.7,1.53,6.78
						c1.45,2.07,3.4,3.33,5.85,3.76l117.69,20.75c9.77,1.72,18.93-0.59,27.46-6.91c8.53-6.34,13.84-14.63,15.94-24.9l36.84-208.91
						c0.75-2.66,0.31-4.98-1.29-6.95c-1.62-1.96-3.51-3.14-5.68-3.52l-40.72-7.18c-2.99-0.53-5.52-0.06-7.59,1.39
						c-2.08,1.46-3.38,3.68-3.9,6.66l-22.04,125.02c-0.96,5.43-3.95,10.08-8.97,13.95c-5.03,3.88-10.79,5.24-17.31,4.09
						c-6.25-1.1-11.07-4.33-14.46-9.69C942.98,936.36,941.79,930.83,942.8,925.13z"/>
					<path class="st4" d="M1209.69,759.3l-10.05,57.01l53.35,9.41c14.11,2.49,25.04,10.02,32.76,22.57
						c7.72,12.56,10.45,26.06,8.18,40.49l-25.92,147.01c-2.54,14.39-9.55,25.61-21.05,33.66s-23.97,11.31-37.42,9.78l-118.91-20.97
						c-6.07-0.51-11.13-3.58-15.17-9.18c-4.05-5.61-5.48-11.81-4.28-18.6l50.48-286.28c1.29-7.33,4.78-12.8,10.46-16.42
						c5.68-3.62,11.37-4.92,17.07-3.92l41.94,7.4c6.52,1.15,11.54,4.42,15.07,9.8C1209.72,746.43,1210.89,752.52,1209.69,759.3z
						 M1195.44,756.79c0.43-2.44-0.01-4.69-1.33-6.74c-1.32-2.05-3.2-3.29-5.64-3.72l-41.94-7.4c-2.18-0.38-4.37,0.14-6.58,1.57
						c-2.21,1.43-3.56,3.51-4.04,6.22L1085.43,1033c-0.48,2.72,0,5.11,1.46,7.19c1.45,2.08,3.4,3.33,5.85,3.76l118.91,20.97
						c9.59,1.13,18.57-1.34,26.92-7.43c8.35-6.09,13.41-14.15,15.18-24.2l25.92-147.01c1.59-10.64-0.39-20.43-5.94-29.39
						c-5.56-8.96-13.36-14.32-23.41-16.09l-62.71-11.06c-1.36-0.24-2.42-0.98-3.17-2.24c-0.76-1.25-1-2.7-0.71-4.32L1195.44,756.79z
						 M1217.4,894.19l-19.67,111.58c-1.05,5.97-4.09,10.9-9.11,14.77c-5.03,3.88-10.79,5.24-17.31,4.09
						c-6.25-1.1-11.14-4.34-14.66-9.72c-3.53-5.38-4.79-10.92-3.79-16.62l19.75-111.99c1.15-6.52,4.31-11.76,9.5-15.75
						c5.18-3.98,10.89-5.43,17.14-4.33c6.52,1.15,11.45,4.47,14.83,9.96C1217.44,881.67,1218.55,887.67,1217.4,894.19z
						 M1203.15,891.67c0.43-2.44,0.04-4.61-1.16-6.5c-1.21-1.89-3.03-3.05-5.47-3.48c-2.18-0.38-4.21,0.1-6.13,1.44
						c-1.92,1.34-3.09,3.23-3.52,5.68l-19.75,111.99c-0.29,1.63,0.24,3.4,1.58,5.32c1.34,1.92,3.09,3.06,5.27,3.45
						c2.44,0.43,4.55-0.04,6.34-1.4c1.78-1.37,2.86-3.13,3.25-5.31L1203.15,891.67z"/>
					<path class="st4" d="M1478.75,1102.77c-1.15,6.52-4.29,11.63-9.42,15.34c-5.14,3.71-11.1,4.97-17.88,3.78l-118.1-20.82
						c-13.58-2.39-24.49-9.57-32.74-21.52c-8.25-11.95-11.08-25.26-8.5-39.92l25.99-147.42c2.63-14.93,9.89-26.74,21.78-35.42
						c11.88-8.68,24.48-11.85,37.79-9.5l91.63,16.16c14.11,2.49,25.07,9.81,32.87,21.96c7.79,12.15,10.38,25.7,7.74,40.62
						l-14.29,81.04c-2.58,14.66-9.58,26.52-20.97,35.56c-11.4,9.05-24.15,12.33-38.26,9.84l-52.53-9.26
						c-0.55-0.1-1.29,0.19-2.25,0.86c-0.1,0.55-0.05,1.04,0.16,1.5c0.2,0.45,0.57,0.73,1.11,0.83l79.41,14
						c6.78,1.2,11.94,4.49,15.48,9.87c3.53,5.38,4.67,11.6,3.43,18.66L1478.75,1102.77z M1464.49,1100.25l2.44-13.85
						c0.48-2.71,0.06-5.09-1.26-7.15c-1.32-2.05-3.34-3.32-6.05-3.8l-79.41-14c-4.62-0.81-8.05-3.17-10.3-7.07
						c-2.25-3.89-2.97-8.15-2.16-12.77c0.77-4.34,3-7.87,6.69-10.58c3.69-2.71,7.71-3.68,12.06-2.91l52.53,9.26
						c10.04,1.77,19.14-0.61,27.29-7.15c8.15-6.54,13.16-15.1,15.03-25.69l14.29-81.04c1.91-10.85,0.06-20.56-5.57-29.12
						c-5.63-8.55-13.47-13.71-23.51-15.48l-91.63-16.16c-9.51-1.68-18.5,0.52-26.98,6.58c-8.49,6.06-13.69,14.53-15.6,25.38
						l-25.99,147.42c-1.82,10.32,0.2,19.91,6.05,28.78c5.85,8.87,13.67,14.17,23.44,15.89l118.1,20.82c2.71,0.48,5.04-0.02,6.98-1.5
						C1462.88,1104.66,1464.06,1102.7,1464.49,1100.25z M1433.16,932.65l-7.83,44.39c-1,5.7-4.02,10.49-9.04,14.36
						c-5.03,3.88-10.79,5.24-17.31,4.09c-6.25-1.1-11.14-4.34-14.66-9.72c-3.53-5.38-4.82-10.78-3.86-16.22l7.9-44.8
						c1.2-6.78,4.37-12.1,9.53-15.96c5.15-3.85,10.85-5.22,17.1-4.12c6.52,1.15,11.47,4.4,14.87,9.76
						C1433.26,919.8,1434.36,925.87,1433.16,932.65z M1418.91,930.14c0.48-2.71,0.11-5.02-1.09-6.91c-1.21-1.89-3.03-3.05-5.47-3.48
						c-2.18-0.38-4.21,0.1-6.13,1.44c-1.92,1.34-3.12,3.37-3.59,6.08l-7.9,44.8c-0.24,1.36,0.31,2.99,1.65,4.91
						c1.34,1.92,3.09,3.07,5.27,3.45c2.44,0.43,4.55-0.04,6.34-1.4c1.78-1.37,2.81-2.86,3.1-4.49L1418.91,930.14z"/>
					<path class="st4" d="M1534.68,930.82c2.58-14.66,9.57-26.51,20.97-35.56c11.39-9.05,24.12-12.19,38.19-9.43l90.81,16.01
						c13.89,2.17,24.92,9.5,33.07,22c8.15,12.5,10.82,25.92,8.02,40.25l-6.53,37.06c-1.29,7.33-4.67,12.97-10.12,16.9
						c-5.46,3.94-11.3,5.36-17.55,4.25l-40.32-7.11c-6.79-1.2-12-4.56-15.64-10.11c-3.64-5.54-4.84-11.84-3.6-18.9l3.16-17.92
						c0.43-2.44-0.01-4.69-1.33-6.74c-1.32-2.05-3.2-3.29-5.64-3.72c-2.44-0.43-4.49,0.05-6.13,1.44c-1.65,1.39-2.68,3.31-3.11,5.75
						l-27.57,156.38c-1.34,7.6-4.7,13.17-10.08,16.7c-5.38,3.52-11.47,4.7-18.25,3.5l-40.32-7.11c-5.8-0.46-10.92-3.54-15.38-9.22
						s-5.63-12.12-3.52-19.31L1534.68,930.82z M1548.53,933.26l-31.02,175.92c-0.75,2.67-0.33,5.05,1.26,7.15
						c1.58,2.1,3.47,3.34,5.64,3.72l41.13,7.25c2.98,0.53,5.58,0.08,7.8-1.35c2.21-1.43,3.6-3.77,4.18-7.03l27.5-155.97
						c0.88-6.56,3.77-11.86,8.68-15.89c4.91-4.03,10.62-5.48,17.14-4.33c6.24,1.1,11.19,4.43,14.83,9.96
						c3.64,5.54,4.89,11.57,3.74,18.08l-3.16,17.92c-0.48,2.72-0.01,5.18,1.43,7.39c1.43,2.21,3.5,3.56,6.21,4.04l40.32,7.11
						c2.44,0.43,4.78-0.13,7.02-1.7c2.23-1.56,3.62-3.84,4.14-6.83l6.53-37.06c2.09-10.27,0.15-19.92-5.81-28.95
						c-5.97-9.03-14-14.29-24.09-15.79l-90.81-16.01c-10-2.04-19.14,0.19-27.43,6.71C1555.47,914.12,1550.39,922.67,1548.53,933.26z
						"/>
					<path class="st4" d="M609,1132.21c2.58-14.66,9.57-26.51,20.97-35.56c11.39-9.05,24.12-12.19,38.19-9.43l90.81,16.01
						c13.89,2.17,24.92,9.5,33.07,22c8.15,12.5,10.82,25.91,8.02,40.25l-6.53,37.06c-1.29,7.33-4.67,12.97-10.12,16.9
						c-5.46,3.94-11.3,5.35-17.55,4.25l-40.32-7.11c-6.79-1.2-12-4.56-15.64-10.11c-3.64-5.54-4.84-11.84-3.6-18.9l3.16-17.92
						c0.43-2.44-0.01-4.69-1.33-6.74c-1.32-2.05-3.2-3.29-5.64-3.72s-4.49,0.05-6.13,1.44c-1.65,1.39-2.68,3.31-3.11,5.75
						l-27.57,156.38c-1.34,7.6-4.71,13.17-10.08,16.7c-5.38,3.52-11.47,4.7-18.25,3.5l-40.32-7.11c-5.8-0.46-10.92-3.54-15.38-9.22
						c-4.46-5.68-5.63-12.12-3.52-19.31L609,1132.21z M622.84,1134.65l-31.02,175.92c-0.75,2.67-0.33,5.05,1.26,7.15
						c1.58,2.1,3.47,3.34,5.64,3.72l41.13,7.25c2.98,0.53,5.58,0.08,7.8-1.35c2.21-1.43,3.6-3.77,4.18-7.03l27.5-155.97
						c0.88-6.56,3.77-11.86,8.68-15.89c4.91-4.03,10.62-5.48,17.14-4.33c6.24,1.1,11.19,4.43,14.83,9.96
						c3.64,5.54,4.89,11.57,3.74,18.08l-3.16,17.92c-0.48,2.72-0.01,5.18,1.43,7.39c1.43,2.21,3.5,3.56,6.22,4.04l40.32,7.11
						c2.44,0.43,4.78-0.13,7.02-1.7c2.23-1.56,3.62-3.84,4.14-6.83l6.53-37.06c2.08-10.27,0.15-19.92-5.81-28.95
						c-5.97-9.03-14-14.29-24.09-15.79l-90.81-16.01c-10-2.04-19.14,0.2-27.43,6.71C629.79,1115.51,624.71,1124.06,622.84,1134.65z"
						/>
					<path class="st4" d="M984.73,1380.27c-1.15,6.52-4.29,11.63-9.42,15.34c-5.14,3.71-11.1,4.97-17.88,3.78l-118.1-20.82
						c-13.58-2.39-24.49-9.57-32.74-21.52c-8.25-11.95-11.08-25.26-8.5-39.92l25.99-147.42c2.63-14.93,9.89-26.74,21.78-35.42
						c11.88-8.68,24.48-11.85,37.79-9.5l91.63,16.16c14.11,2.49,25.07,9.81,32.87,21.96c7.79,12.15,10.38,25.7,7.74,40.62
						l-14.29,81.04c-2.58,14.66-9.58,26.52-20.97,35.56c-11.4,9.05-24.15,12.33-38.26,9.84l-52.53-9.26
						c-0.55-0.1-1.29,0.19-2.25,0.86c-0.1,0.55-0.05,1.04,0.16,1.5c0.2,0.46,0.57,0.73,1.11,0.83l79.41,14
						c6.78,1.2,11.94,4.49,15.48,9.87c3.53,5.39,4.67,11.6,3.43,18.66L984.73,1380.27z M970.48,1377.76l2.44-13.85
						c0.48-2.71,0.06-5.09-1.26-7.15c-1.32-2.05-3.34-3.32-6.05-3.8l-79.41-14c-4.62-0.81-8.05-3.16-10.3-7.06
						c-2.25-3.89-2.97-8.15-2.16-12.77c0.76-4.34,3-7.87,6.69-10.58c3.69-2.71,7.72-3.68,12.06-2.91l52.53,9.26
						c10.04,1.77,19.14-0.61,27.29-7.15c8.15-6.54,13.16-15.11,15.03-25.69l14.29-81.04c1.91-10.86,0.06-20.57-5.57-29.12
						c-5.63-8.55-13.47-13.71-23.51-15.48l-91.63-16.16c-9.51-1.68-18.5,0.52-26.98,6.58c-8.49,6.06-13.69,14.53-15.6,25.38
						l-25.99,147.42c-1.82,10.32,0.2,19.91,6.05,28.78c5.85,8.87,13.67,14.17,23.44,15.89l118.1,20.82c2.71,0.48,5.04-0.02,6.98-1.5
						C968.86,1382.17,970.05,1380.2,970.48,1377.76z M939.15,1210.16l-7.83,44.39c-1.01,5.7-4.02,10.49-9.04,14.36
						c-5.03,3.88-10.79,5.24-17.31,4.09c-6.25-1.1-11.14-4.34-14.66-9.72c-3.53-5.38-4.82-10.78-3.86-16.22l7.9-44.79
						c1.2-6.78,4.37-12.1,9.53-15.96c5.15-3.85,10.85-5.22,17.1-4.12c6.52,1.15,11.47,4.4,14.87,9.76
						C939.24,1197.3,940.34,1203.37,939.15,1210.16z M924.89,1207.64c0.48-2.71,0.11-5.02-1.09-6.91c-1.21-1.89-3.03-3.05-5.47-3.48
						c-2.18-0.38-4.21,0.1-6.13,1.44c-1.92,1.34-3.11,3.38-3.59,6.08l-7.9,44.8c-0.24,1.36,0.31,2.99,1.65,4.91
						c1.34,1.92,3.09,3.07,5.27,3.45c2.44,0.43,4.55-0.04,6.34-1.4c1.78-1.37,2.82-2.86,3.1-4.49L924.89,1207.64z"/>
					<path class="st4" d="M1045.09,1178.45c1.2-6.78,4.38-12.17,9.57-16.16c5.18-3.98,11.16-5.38,17.95-4.18l118.1,20.82
						c13.85,2.44,24.79,9.83,32.83,22.17c8.04,12.33,10.77,25.83,8.19,40.49l-25.99,147.42c-2.68,15.21-9.92,26.88-21.71,35.01
						c-11.79,8.14-24.34,11.03-37.64,8.69l-91.63-16.16c-13.85-2.44-24.78-9.47-32.81-21.11c-8.03-11.63-10.7-25.05-8.02-40.25
						l14-79.41c2.54-14.39,9.57-26.09,21.1-35.12c11.52-9.02,24.21-12.32,38.06-9.87l52.53,9.26c0.54,0.1,1.05-0.02,1.53-0.36
						c0.48-0.33,0.74-0.64,0.79-0.91c0.1-0.54,0.04-1.04-0.16-1.5c-0.2-0.46-0.57-0.73-1.11-0.83l-79.41-14
						c-6.79-1.2-11.95-4.48-15.48-9.87c-3.53-5.38-4.67-11.6-3.43-18.66L1045.09,1178.45z M1059.34,1180.96l-2.73,15.47
						c-0.48,2.72-0.06,5.1,1.26,7.15c1.32,2.06,3.33,3.32,6.05,3.79l79.41,14c4.61,0.81,8.11,3.18,10.5,7.1
						c2.38,3.92,3.17,8.19,2.36,12.8c-0.82,4.62-3.14,8.26-6.97,10.95c-3.83,2.68-7.92,3.64-12.26,2.88l-52.53-9.26
						c-10.05-1.77-19.14,0.55-27.26,6.95c-8.13,6.41-13.12,14.9-14.99,25.49l-14,79.41c-1.92,10.86-0.06,20.57,5.57,29.12
						s13.47,13.71,23.51,15.48l91.63,16.16c9.5,1.67,18.49-0.52,26.98-6.58c8.48-6.06,13.69-14.52,15.6-25.38l25.99-147.42
						c1.82-10.31-0.2-19.91-6.05-28.78c-5.86-8.87-13.67-14.17-23.44-15.89l-118.1-20.82c-2.72-0.48-5.04,0.02-6.98,1.5
						C1060.96,1176.56,1059.77,1178.52,1059.34,1180.96z M1090.58,1351.49l8.04-45.61c0.96-5.43,4.02-10.13,9.21-14.12
						c5.18-3.98,10.89-5.43,17.14-4.33c6.52,1.15,11.46,4.47,14.83,9.96c3.37,5.5,4.6,10.82,3.69,15.98l-8.11,46.02
						c-1.2,6.79-4.3,12.05-9.29,15.79c-5,3.74-10.75,5.03-17.27,3.88c-6.25-1.1-11.15-4.28-14.7-9.52
						C1090.56,1364.29,1089.38,1358.28,1090.58,1351.49z M1104.83,1354c-0.43,2.44,0.02,4.62,1.37,6.54
						c1.34,1.92,3.09,3.06,5.27,3.45c2.44,0.43,4.55-0.04,6.34-1.4c1.78-1.37,2.89-3.27,3.32-5.71l8.11-46.02
						c0.19-1.08-0.32-2.58-1.52-4.47c-1.21-1.89-3.03-3.05-5.47-3.49c-2.18-0.38-4.21,0.1-6.13,1.44c-1.92,1.34-2.99,2.69-3.23,4.05
						L1104.83,1354z"/>
					<path class="st4" d="M1273.58,1135.18c1.2-6.78,4.1-12.15,8.72-16.1c4.61-3.94,9.77-5.42,15.47-4.41l37.06,6.53
						c4.89,0.86,9.04,3.9,12.46,9.12c3.42,5.22,4.48,11.5,3.19,18.83L1300,1435.44c-1.2,6.79-4.32,12.19-9.37,16.19
						c-5.05,4-10.24,5.26-15.57,3.76l-34.62-6.1c-5.25-0.37-9.78-3.27-13.58-8.69c-3.81-5.43-5.03-11.94-3.69-19.55L1273.58,1135.18
						z M1285.8,1137.34l-50.41,285.88c-0.58,3.26-0.07,5.94,1.52,8.04c1.58,2.1,3.47,3.34,5.64,3.72l35.84,6.32
						c1.9,0.33,3.82-0.23,5.76-1.71c1.94-1.48,3.15-3.57,3.63-6.29l50.48-286.28c0.48-2.71,0.06-5.09-1.26-7.15
						c-1.32-2.05-2.93-3.25-4.83-3.58l-37.06-6.53c-2.18-0.38-4.17,0.18-5.96,1.68C1287.34,1132.92,1286.23,1134.89,1285.8,1137.34z
						"/>
					<path class="st4" d="M1459.32,1301.04c0.43-2.44,0.1-4.53-0.99-6.26c-1.1-1.73-2.73-2.79-4.9-3.17c-2.72-0.48-5.18,0-7.39,1.43
						c-2.21,1.43-3.51,3.23-3.89,5.4l-27.65,156.78c-1.25,7.06-4.67,12.55-10.25,16.46c-5.59,3.91-12.27,4.9-20.05,2.97l-41.13-7.25
						c-6.61-0.61-12.01-3.73-16.19-9.36c-4.19-5.63-5.68-11.85-4.48-18.64l31.02-175.92c2.58-14.66,9.84-26.46,21.78-35.42
						c11.93-8.95,25.21-12,39.82-9.14l205.65,36.26c14.39,2.54,25.73,10.07,34.02,22.58c8.29,12.52,11.17,25.98,8.63,40.36
						l-31.02,175.92c-1.2,6.79-4.7,11.98-10.51,15.57c-5.82,3.59-11.98,4.82-18.49,3.67l-41.94-7.4c-7.33-1.29-12.98-4.6-16.94-9.92
						c-3.96-5.32-5.27-11.78-3.93-19.38l27.5-155.97c0.43-2.44,0.11-4.6-0.96-6.47c-1.08-1.87-2.83-3.02-5.27-3.45
						c-2.44-0.43-4.78,0.07-6.98,1.5c-2.21,1.43-3.51,3.23-3.89,5.4l-27.65,156.78c-1.25,7.06-4.84,12.37-10.79,15.94
						c-5.95,3.57-12.05,4.8-18.29,3.7l-41.54-7.32c-7.33-1.29-12.98-4.6-16.94-9.92c-3.96-5.32-5.29-11.64-4-18.97L1459.32,1301.04z
						 M1474.32,1304.1l-27.57,156.38c-0.58,3.26-0.14,5.93,1.32,8c1.45,2.08,3.81,3.4,7.07,3.97l41.54,7.32
						c2.71,0.48,5.18,0.01,7.39-1.43c2.21-1.43,3.58-3.63,4.11-6.62l27.65-156.78c1.15-6.52,4.57-11.65,10.27-15.4
						c5.7-3.75,11.81-5.06,18.32-3.91c6.78,1.2,11.81,4.46,15.07,9.8c3.26,5.34,4.31,11.26,3.16,17.77l-27.5,155.97
						c-0.62,3.53-0.21,6.33,1.25,8.41c1.45,2.08,3.94,3.42,7.47,4.05l41.94,7.4c2.71,0.48,5.25,0.02,7.59-1.39
						c2.35-1.4,3.76-3.46,4.24-6.18l31.02-175.92c1.82-10.32-0.25-19.99-6.22-29.02c-5.97-9.03-14.11-14.45-24.42-16.27
						l-205.65-36.26c-10.54-2.13-20.09,0.03-28.65,6.5c-8.56,6.47-13.77,15-15.64,25.59l-31.02,175.92
						c-0.48,2.72,0.07,5.12,1.67,7.22c1.58,2.1,3.61,3.36,6.05,3.79l42.35,7.47c3.8,0.67,6.73,0.28,8.82-1.17
						c2.07-1.45,3.38-3.67,3.9-6.66l27.65-156.78c1.15-6.52,4.51-11.73,10.11-15.64c5.58-3.91,11.77-5.27,18.56-4.07
						c6.78,1.2,11.86,4.54,15.24,10.03C1474.76,1291.66,1475.73,1297.63,1474.32,1304.1z"/>
				</g>
				<g>
					<path class="st4" d="M1266.62,790.35c-0.14,0.78-0.53,1.4-1.17,1.85c-0.64,0.45-1.4,0.6-2.26,0.45l-13.84-2.44
						c-0.7-0.12-1.32-0.52-1.85-1.17c-0.53-0.66-0.72-1.42-0.57-2.28l13.03-73.89c0.15-0.86,0.57-1.51,1.25-1.96
						c0.68-0.44,1.41-0.56,2.18-0.34l39.29,6.93c3.1,0.71,5.62,2.4,7.57,5.08c1.95,2.68,2.64,5.59,2.09,8.71l-6.31,35.77
						c-0.66,3.27-2.35,5.89-5.08,7.87c-2.73,1.98-5.73,2.68-9.02,2.1l-20.76-3.66c-0.39-0.07-0.78,0.04-1.15,0.34
						c-0.38,0.3-0.6,0.68-0.69,1.15L1266.62,790.35z M1287.54,758.12l4.38-24.86c0.25-1.89-0.18-3.66-1.3-5.31
						c-1.12-1.65-2.74-2.66-4.85-3.03c-2.11-0.37-3.99,0.02-5.65,1.18c-1.66,1.16-2.64,2.64-2.96,4.44l-4.41,24.98
						c-0.36,2.03,0.04,3.9,1.19,5.59c1.15,1.7,2.78,2.73,4.89,3.1c2.11,0.37,4-0.04,5.66-1.24
						C1286.17,761.77,1287.18,760.15,1287.54,758.12z"/>
					<path class="st4" d="M1320.49,733.09c0.59-3.36,2.23-6.03,4.92-8.02c2.69-1.98,5.71-2.64,9.05-1.97l30.02,5.29
						c3.38,0.52,6.05,2.17,8.01,4.98c1.96,2.81,2.62,5.8,1.98,9l-2.05,11.61c-0.17,0.94-0.61,1.64-1.34,2.12
						c-0.73,0.48-1.49,0.65-2.27,0.51l-13.37-2.36c-0.86-0.15-1.53-0.57-2.01-1.26c-0.48-0.69-0.65-1.46-0.5-2.32l0.99-5.63
						c0.36-2.03-0.08-3.9-1.31-5.61c-1.23-1.71-2.9-2.75-5.01-3.12c-2.11-0.37-3.98,0.04-5.6,1.25c-1.62,1.21-2.58,2.83-2.86,4.88
						l-8.54,48.44c-0.19,1.1-0.63,1.84-1.3,2.25c-0.68,0.41-1.52,0.52-2.54,0.34l-13.6-2.4c-0.72-0.05-1.34-0.4-1.87-1.06
						c-0.53-0.66-0.68-1.41-0.45-2.26L1320.49,733.09z"/>
					<path class="st4" d="M1426.97,808.22c-0.14,0.78-0.53,1.4-1.17,1.85c-0.64,0.45-1.4,0.6-2.26,0.45l-39.05-6.89
						c-3.21-0.57-5.79-2.23-7.77-5c-1.97-2.77-2.67-5.75-2.11-8.96l8.07-45.74c0.59-3.36,2.28-5.99,5.08-7.87
						c2.79-1.88,5.75-2.55,8.88-2l30.26,5.34c3.28,0.58,5.88,2.23,7.77,4.94c1.9,2.71,2.55,5.75,1.96,9.11l-4.42,25.1
						c-0.58,3.28-2.21,5.92-4.9,7.9c-2.69,1.99-5.67,2.69-8.96,2.11l-17.36-3.06c-1.41-0.25-2.73,0.04-3.96,0.87
						c-1.23,0.83-1.98,1.95-2.22,3.36c-0.25,1.41,0.02,2.73,0.81,3.95c0.79,1.23,1.93,1.97,3.42,2.23l26.27,4.63
						c0.86,0.15,1.52,0.55,1.97,1.19c0.45,0.64,0.6,1.4,0.45,2.26L1426.97,808.22z M1416.1,756c0.37-2.11-0.02-3.99-1.18-5.65
						c-1.16-1.66-2.79-2.67-4.91-3.04c-2.11-0.37-4,0.02-5.65,1.18c-1.66,1.16-2.67,2.79-3.04,4.91l-2.46,13.96
						c-0.29,1.64,0.14,3.31,1.29,5.01c1.15,1.7,2.78,2.73,4.9,3.1c2.11,0.37,4-0.04,5.66-1.24c1.66-1.2,2.64-2.66,2.95-4.38
						L1416.1,756z"/>
					<path class="st4" d="M1444.83,754.9c0.58-3.28,2.21-5.9,4.89-7.84c2.68-1.95,5.7-2.62,9.06-2.03l39.17,6.91
						c0.94,0.17,1.61,0.57,2.03,1.2c0.41,0.64,0.54,1.39,0.39,2.25l-1.82,10.32c-0.15,0.86-0.57,1.49-1.24,1.9
						c-0.68,0.41-1.45,0.57-2.33,0.5l-28.62-5.05c-1.49-0.26-2.8,0.01-3.95,0.81c-1.15,0.81-1.85,1.91-2.1,3.32
						c-0.25,1.41,0.03,2.71,0.82,3.89c0.8,1.19,1.89,1.99,3.27,2.39l20.41,3.6c3.05,0.54,5.51,2.12,7.39,4.75
						c1.87,2.63,2.53,5.55,1.96,8.75l-3.45,19.59c-0.59,3.36-2.28,5.97-5.07,7.81c-2.79,1.85-5.74,2.49-8.87,1.94l-39.29-6.93
						c-0.86-0.15-1.5-0.55-1.91-1.18c-0.41-0.64-0.49-1.66-0.25-3.07l1.7-9.62c0.14-0.78,0.51-1.4,1.11-1.86
						c0.6-0.46,1.33-0.61,2.2-0.46l28.85,5.09c1.25,0.22,2.53-0.08,3.84-0.89c1.31-0.82,2.1-1.97,2.36-3.45
						c0.25-1.41-0.1-2.74-1.05-3.99c-0.95-1.25-2.05-1.99-3.3-2.21l-19.59-3.45c-3.43-0.68-6.09-2.38-7.99-5.1
						c-1.9-2.71-2.55-5.79-1.94-9.23L1444.83,754.9z"/>
					<path class="st4" d="M1551.29,830.14c-0.14,0.78-0.53,1.4-1.17,1.85c-0.64,0.45-1.4,0.6-2.26,0.45l-39.05-6.89
						c-3.21-0.57-5.79-2.23-7.76-5c-1.97-2.77-2.68-5.75-2.11-8.96l8.07-45.74c0.59-3.36,2.28-5.99,5.08-7.87
						c2.79-1.88,5.75-2.55,8.88-2l30.26,5.34c3.28,0.58,5.88,2.23,7.78,4.94c1.9,2.71,2.55,5.75,1.96,9.11l-4.42,25.1
						c-0.58,3.28-2.21,5.92-4.9,7.9c-2.69,1.99-5.67,2.69-8.96,2.11l-17.36-3.06c-1.41-0.25-2.73,0.04-3.96,0.87
						c-1.23,0.83-1.98,1.95-2.22,3.36c-0.25,1.41,0.02,2.73,0.81,3.95c0.79,1.23,1.93,1.97,3.42,2.23l26.27,4.63
						c0.86,0.15,1.52,0.55,1.97,1.19c0.45,0.64,0.6,1.4,0.45,2.26L1551.29,830.14z M1540.42,777.92c0.37-2.11-0.02-3.99-1.18-5.65
						c-1.16-1.66-2.79-2.67-4.91-3.04c-2.11-0.37-3.99,0.02-5.65,1.18c-1.66,1.16-2.67,2.79-3.04,4.91l-2.46,13.96
						c-0.29,1.64,0.14,3.31,1.29,5.01c1.15,1.7,2.78,2.73,4.89,3.1c2.11,0.37,4-0.04,5.66-1.24c1.66-1.2,2.65-2.66,2.95-4.38
						L1540.42,777.92z"/>
					<path class="st4" d="M1602.74,788.66c0.44-2.02,0.12-3.87-0.96-5.55c-1.08-1.68-2.67-2.71-4.78-3.08
						c-2.11-0.37-4.06,0.03-5.84,1.21c-1.78,1.18-2.85,2.78-3.21,4.82l-8.62,48.91c-0.17,0.94-0.57,1.63-1.21,2.08
						c-0.64,0.45-1.54,0.53-2.7,0.25l-13.37-2.36c-0.8-0.06-1.44-0.41-1.93-1.07c-0.49-0.65-0.66-1.41-0.51-2.27l9.68-54.89
						c0.49-3.22,2.09-5.82,4.82-7.8c2.73-1.98,5.73-2.64,9-1.98l30.38,5.36c3.28,0.58,5.87,2.26,7.75,5.06
						c1.89,2.79,2.54,5.83,1.96,9.11l-9.62,54.54c-0.15,0.86-0.59,1.51-1.31,1.95c-0.72,0.44-1.51,0.58-2.37,0.43l-13.02-2.3
						c-1.1-0.19-1.87-0.59-2.33-1.2c-0.46-0.6-0.59-1.45-0.4-2.55L1602.74,788.66z"/>
					<path class="st4" d="M1632.79,834.96l7.01-39.76c-0.37-1.11-0.44-1.51-0.21-1.19c0.22,0.32-0.12,0.12-1.04-0.61l-4.81-0.85
						c-0.86-0.15-1.55-0.59-2.06-1.33c-0.52-0.74-0.68-1.61-0.5-2.63l1.74-9.85c0.18-1.02,0.62-1.7,1.33-2.06
						c0.71-0.36,1.49-0.46,2.35-0.31l4.69,0.83c0.38,0.15,0.77,0.1,1.18-0.16c0.41-0.25,0.65-0.61,0.73-1.08l1.03-5.86
						c0.15-0.86,0.55-1.52,1.19-1.97c0.64-0.45,1.39-0.6,2.25-0.45l13.49,2.38c0.78,0.14,1.44,0.52,1.98,1.13
						c0.54,0.62,0.72,1.4,0.56,2.33l-1.03,5.86c-0.07,0.39,0.04,0.77,0.34,1.15c0.29,0.38,0.64,0.6,1.03,0.67l20.29,3.58
						c0.94,0.17,1.64,0.53,2.1,1.1c0.46,0.57,0.61,1.36,0.43,2.37l-1.74,9.85c-0.18,1.02-0.64,1.78-1.37,2.3
						c-0.74,0.52-1.5,0.7-2.28,0.57l-20.41-3.6c-0.39-0.07-0.77,0.03-1.14,0.28c-0.37,0.26-0.59,0.62-0.68,1.09l-6.06,34.36
						c-0.44,2.02-0.1,3.87,1.01,5.56c1.11,1.69,2.73,2.72,4.84,3.09l14.78,2.61c0.78,0.14,1.43,0.55,1.96,1.25
						c0.52,0.7,0.7,1.51,0.54,2.45l-0.6,3.4c-0.22,1.25-0.69,2.08-1.41,2.47c-0.72,0.4-1.54,0.51-2.48,0.35l-29.44-5.19
						c-3.36-0.59-5.97-2.26-7.82-5.01C1632.71,841.35,1632.12,838.31,1632.79,834.96z"/>
					<path class="st4" d="M1693.47,798.74c0.58-3.28,2.21-5.9,4.89-7.84c2.68-1.95,5.7-2.62,9.06-2.03l39.17,6.91
						c0.94,0.17,1.61,0.57,2.03,1.2c0.41,0.64,0.54,1.39,0.39,2.25l-1.82,10.32c-0.15,0.86-0.57,1.49-1.24,1.9
						c-0.68,0.41-1.45,0.57-2.33,0.5l-28.62-5.05c-1.49-0.26-2.8,0.01-3.95,0.81c-1.15,0.81-1.85,1.91-2.1,3.32
						c-0.25,1.41,0.03,2.71,0.82,3.89c0.8,1.19,1.89,1.99,3.27,2.39l20.41,3.6c3.05,0.54,5.51,2.12,7.39,4.75
						c1.87,2.63,2.53,5.55,1.96,8.75l-3.45,19.59c-0.59,3.36-2.28,5.97-5.07,7.81c-2.79,1.85-5.74,2.49-8.87,1.94l-39.29-6.93
						c-0.86-0.15-1.5-0.55-1.91-1.18c-0.41-0.64-0.49-1.66-0.25-3.07l1.7-9.62c0.14-0.78,0.51-1.4,1.11-1.86
						c0.6-0.46,1.33-0.61,2.2-0.46l28.85,5.09c1.25,0.22,2.53-0.08,3.84-0.89c1.31-0.82,2.1-1.97,2.36-3.45
						c0.25-1.41-0.1-2.74-1.05-3.99c-0.95-1.25-2.05-1.99-3.3-2.21l-19.59-3.45c-3.43-0.68-6.09-2.38-7.99-5.1
						c-1.9-2.71-2.55-5.79-1.94-9.23L1693.47,798.74z"/>
					<path class="st4" d="M1752.03,830.83c0.14-0.78,0.53-1.4,1.17-1.85c0.64-0.45,1.4-0.6,2.26-0.45l13.84,2.44
						c0.7,0.12,1.32,0.52,1.85,1.17c0.53,0.66,0.72,1.42,0.57,2.28l-2.46,13.96c-0.15,0.86-0.57,1.51-1.25,1.96
						c-0.68,0.44-1.41,0.56-2.18,0.34l-13.49-2.38c-0.8-0.06-1.49-0.44-2.09-1.16c-0.6-0.71-0.82-1.53-0.65-2.47L1752.03,830.83z
						 M1758.19,795.88c0.14-0.78,0.53-1.4,1.17-1.85c0.64-0.45,1.39-0.6,2.26-0.45l13.84,2.44c0.7,0.12,1.32,0.52,1.85,1.17
						c0.53,0.66,0.72,1.42,0.57,2.28l-2.46,13.96c-0.15,0.86-0.57,1.51-1.25,1.96c-0.68,0.44-1.41,0.56-2.18,0.34l-13.49-2.38
						c-0.8-0.06-1.49-0.44-2.09-1.16c-0.6-0.71-0.82-1.53-0.65-2.47L1758.19,795.88z"/>
				</g>
				<g>
					<g>
						
							<rect x="1014.31" y="989.1" transform="matrix(0.1736 -0.9848 0.9848 0.1736 -613.9078 2342.4148)" class="st1" width="149.05" height="1095.85"/>
					</g>
					<g>
						<path class="st4" d="M649.46,1413.53l25.86,4.56l9.68,50.02l26.32-43.67l25.8,4.55l-15.44,87.55l-19.23-3.39l11.29-64.04
							l-26.44,44.01l-12.9-2.27l-9.8-50.4l-11.29,64.04l-19.29-3.4L649.46,1413.53z"/>
						<path class="st4" d="M841.71,1521.26l-31.78-5.6l-7.86,15.06l-20.41-3.6l44.64-82.4l24.22,4.27l13.77,92.7l-20.47-3.61
							L841.71,1521.26z M817.84,1500.3l21.58,3.81l-4.59-36.72L817.84,1500.3z"/>
						<path class="st4" d="M975.95,1515.3l19.45,49.5l-21.17-3.73l-13.14-33.15l-23.51,26.69l-21.29-3.75l35.21-39.87l-18.71-47.5
							l21.23,3.74l12.27,31.25l22.21-25.17l21.29,3.75L975.95,1515.3z"/>
						<path class="st4" d="M1072.4,1488.11l20.35,3.59l-15.44,87.55l-20.35-3.59L1072.4,1488.11z"/>
						<path class="st4" d="M1162.05,1503.92l25.86,4.56l9.68,50.02l26.32-43.67l25.8,4.55l-15.44,87.55l-19.23-3.39l11.29-64.04
							l-26.44,44.01l-12.9-2.27l-9.8-50.4l-11.29,64.04l-19.29-3.4L1162.05,1503.92z"/>
						<path class="st4" d="M1319.08,1531.6l20.35,3.59l-9.25,52.48c-1.28,7.23-1.12,12.59,0.46,16.07s4.78,5.65,9.59,6.5
							c4.85,0.85,8.61-0.08,11.29-2.82c2.68-2.73,4.66-7.71,5.93-14.95l9.25-52.48l20.35,3.59l-9.25,52.48
							c-2.19,12.39-6.62,21.12-13.3,26.19c-6.68,5.07-15.74,6.6-27.2,4.58c-11.45-2.02-19.44-6.55-23.96-13.6
							s-5.69-16.76-3.51-29.16L1319.08,1531.6z"/>
						<path class="st4" d="M1456.28,1555.8l25.86,4.56l9.68,50.02l26.32-43.67l25.8,4.55l-15.44,87.55l-19.23-3.39l11.29-64.04
							l-26.44,44.01l-12.9-2.27l-9.8-50.4l-11.29,64.04l-19.29-3.4L1456.28,1555.8z"/>
					</g>
				</g>
			</g>
		</g>
	</g>
</g>
<g id="Layer_2">
</g>
</svg>
