<?xml version="1.0" encoding="utf-8"?>
<!-- Generator: Adobe Illustrator 25.4.1, SVG Export Plug-In . SVG Version: 6.00 Build 0)  -->
<svg version="1.1" xmlns="http://www.w3.org/2000/svg" xmlns:xlink="http://www.w3.org/1999/xlink" x="0px" y="0px"
	 viewBox="0 0 1920 1920" style="enable-background:new 0 0 1920 1920;" xml:space="preserve">
<style type="text/css">
	.st0{clip-path:url(#SVGID_00000160192903293711100390000017477146862968708754_);}
	.st1{fill:#CC4444;}
	.st2{fill:#56CC56;}
	.st3{fill:#4646BC;}
	.st4{fill:#FFFFFF;}
	.st5{font-family:'disc_black';}
	.st6{font-size:121.9495px;}
	.st7{font-family:'disc';}
	.st8{font-size:423.4356px;}
</style>
<g id="Layer_1">
</g>
<g id="Layer_3">
	<g>
		<defs>
			<polyline id="SVGID_1_" points="766.41,0 1920,0 1920,1920 0,1920 0,0 766.41,0 			"/>
		</defs>
		<clipPath id="SVGID_00000067944512089940142180000015663439744674837147_">
			<use xlink:href="#SVGID_1_"  style="overflow:visible;"/>
		</clipPath>
		<g style="clip-path:url(#SVGID_00000067944512089940142180000015663439744674837147_);">
			<g>
				<polyline class="st1" points="146.92,1920 485.47,0 579.15,0.02 240.61,1920 				"/>
			</g>
			<g>
				<polyline class="st2" points="240.47,1920 579.02,0 672.7,0 334.16,1920 				"/>
			</g>
			<g>
				<polyline class="st3" points="766.41,0 427.86,1920 334.17,1920 672.72,0 				"/>
			</g>
			<g>
				<text transform="matrix(0.9848 0.1736 -0.1736 0.9848 1264.8816 681.9022)" class="st4 st5 st6">cyberboy</text>
				<text transform="matrix(0.9848 0.1736 -0.1736 0.9848 623.7817 972.1679)"><tspan x="0" y="0" class="st4 st7 st8">cyber</tspan><tspan x="0" y="359.07" class="st4 st7 st8">realm</tspan></text>
				<text transform="matrix(0.9848 0.1736 -0.1736 0.9848 1244.0964 778.8762)" class="st4 st5 st6">presents:</text>
				<g>
					<g>
						
							<rect x="1014.31" y="989.1" transform="matrix(0.1736 -0.9848 0.9848 0.1736 -613.9078 2342.4148)" class="st1" width="149.05" height="1095.85"/>
					</g>
					<g>
						<path class="st4" d="M649.46,1413.53l25.86,4.56l9.68,50.02l26.32-43.67l25.8,4.55l-15.44,87.55l-19.23-3.39l11.29-64.04
							l-26.44,44.01l-12.9-2.27l-9.8-50.4l-11.29,64.04l-19.29-3.4L649.46,1413.53z"/>
						<path class="st4" d="M841.71,1521.26l-31.78-5.6l-7.86,15.06l-20.41-3.6l44.64-82.4l24.22,4.27l13.77,92.7l-20.47-3.61
							L841.71,1521.26z M817.84,1500.3l21.58,3.81l-4.59-36.72L817.84,1500.3z"/>
						<path class="st4" d="M975.95,1515.3l19.45,49.5l-21.17-3.73l-13.14-33.15l-23.51,26.69l-21.29-3.75l35.21-39.87l-18.71-47.5
							l21.23,3.74l12.27,31.25l22.21-25.17l21.29,3.75L975.95,1515.3z"/>
						<path class="st4" d="M1072.4,1488.11l20.35,3.59l-15.44,87.55l-20.35-3.59L1072.4,1488.11z"/>
						<path class="st4" d="M1162.05,1503.92l25.86,4.56l9.68,50.02l26.32-43.67l25.8,4.55l-15.44,87.55l-19.23-3.39l11.29-64.04
							l-26.44,44.01l-12.9-2.27l-9.8-50.4l-11.29,64.04l-19.29-3.4L1162.05,1503.92z"/>
						<path class="st4" d="M1319.08,1531.6l20.35,3.59l-9.25,52.48c-1.28,7.23-1.12,12.59,0.46,16.07s4.78,5.65,9.59,6.5
							c4.85,0.85,8.61-0.08,11.29-2.82c2.68-2.73,4.66-7.71,5.93-14.95l9.25-52.48l20.35,3.59l-9.25,52.48
							c-2.19,12.39-6.62,21.12-13.3,26.19c-6.68,5.07-15.74,6.6-27.2,4.58c-11.45-2.02-19.44-6.55-23.96-13.6
							s-5.69-16.76-3.51-29.16L1319.08,1531.6z"/>
						<path class="st4" d="M1456.28,1555.8l25.86,4.56l9.68,50.02l26.32-43.67l25.8,4.55l-15.44,87.55l-19.23-3.39l11.29-64.04
							l-26.44,44.01l-12.9-2.27l-9.8-50.4l-11.29,64.04l-19.29-3.4L1456.28,1555.8z"/>
					</g>
				</g>
			</g>
		</g>
	</g>
</g>
<g id="Layer_2">
</g>
</svg>
